<?xml version="1.0" standalone="no"?>
<!DOCTYPE svg PUBLIC "-//W3C//DTD SVG 20010904//EN"
 "http://www.w3.org/TR/2001/REC-SVG-20010904/DTD/svg10.dtd">
<svg version="1.0" xmlns="http://www.w3.org/2000/svg"
 width="260.000000pt" height="260.000000pt" viewBox="0 0 260.000000 260.000000"
 preserveAspectRatio="xMidYMid meet">
<metadata>
Created by potrace 1.11, written by Peter Selinger 2001-2013
</metadata>
<g transform="translate(0.000000,260.000000) scale(0.100000,-0.100000)"
fill="#000000" stroke="none">
<path d="M101 2318 c41 -79 105 -195 143 -258 69 -114 97 -188 89 -241 -2 -15
-21 -70 -42 -122 -56 -137 -73 -196 -90 -318 -10 -67 -9 -268 1 -285 3 -5 9
-31 12 -59 8 -69 50 -195 98 -290 128 -255 350 -452 613 -543 140 -48 200 -57
365 -56 100 1 145 7 225 28 102 26 320 126 362 166 12 11 25 20 29 20 9 0 78
57 124 102 91 89 184 223 224 325 13 32 27 67 31 78 4 11 9 26 11 34 1 8 9 35
18 60 13 41 19 72 31 151 13 81 0 395 -15 395 -1 0 -3 9 -4 20 -8 64 -32 128
-51 135 -11 5 -14 9 -7 9 16 1 15 20 -4 56 -18 33 -24 138 -10 170 5 11 10 27
11 36 1 8 40 77 88 151 48 75 87 139 87 142 0 4 10 23 23 44 13 20 42 72 66
114 l42 77 -73 -36 c-40 -19 -101 -48 -135 -64 -34 -15 -118 -60 -187 -98
-120 -68 -179 -90 -238 -91 -15 0 -78 24 -140 54 -107 51 -188 82 -240 91 -12
3 -34 7 -48 10 -111 26 -290 28 -405 6 -116 -23 -339 -109 -390 -151 -9 -7
-83 -6 -145 3 -8 1 -71 34 -140 74 -69 39 -179 97 -245 128 -66 32 -128 62
-138 67 -12 6 5 -37 54 -134z"/>
</g>
</svg>
